<?xml version="1.0" encoding="UTF-8" standalone="no"?>
<!-- Generator: Adobe Illustrator 18.1.1, SVG Export Plug-In . SVG Version: 6.00 Build 0)  -->

<svg
   xmlns:dc="http://purl.org/dc/elements/1.1/"
   xmlns:cc="http://creativecommons.org/ns#"
   xmlns:rdf="http://www.w3.org/1999/02/22-rdf-syntax-ns#"
   xmlns:svg="http://www.w3.org/2000/svg"
   xmlns="http://www.w3.org/2000/svg"
   xmlns:sodipodi="http://sodipodi.sourceforge.net/DTD/sodipodi-0.dtd"
   xmlns:inkscape="http://www.inkscape.org/namespaces/inkscape"
   version="1.1"
   x="0px"
   y="0px"
   width="32"
   height="32"
   viewBox="0 0 32 32"
   xml:space="preserve"
   id="svg2"
   inkscape:version="0.91 r13725"
   sodipodi:docname="settings.svg"
   inkscape:export-filename="D:\Work\CPlusPlus\Projects\HCP\source\hcp_client\resources\settings.png"
   inkscape:export-xdpi="91"
   inkscape:export-ydpi="91"><metadata
     id="metadata22"><rdf:RDF><cc:Work
         rdf:about=""><dc:format>image/svg+xml</dc:format><dc:type
           rdf:resource="http://purl.org/dc/dcmitype/StillImage" /><dc:title /></cc:Work></rdf:RDF></metadata><defs
     id="defs20" /><sodipodi:namedview
     pagecolor="#ffffff"
     bordercolor="#666666"
     borderopacity="1"
     objecttolerance="20"
     gridtolerance="20"
     guidetolerance="20"
     inkscape:pageopacity="0"
     inkscape:pageshadow="2"
     inkscape:window-width="1920"
     inkscape:window-height="1027"
     id="namedview18"
     showgrid="true"
     inkscape:zoom="8.3364828"
     inkscape:cx="-2.394146"
     inkscape:cy="26.49487"
     inkscape:window-x="-8"
     inkscape:window-y="-8"
     inkscape:window-maximized="1"
     inkscape:current-layer="svg2"
     showborder="true"
     inkscape:snap-global="true"
     inkscape:snap-bbox="true"
     inkscape:bbox-paths="false"
     inkscape:bbox-nodes="true"
     inkscape:snap-bbox-edge-midpoints="true"><inkscape:grid
       type="xygrid"
       id="grid4152" /></sodipodi:namedview><style
     type="text/css"
     id="style4">
	.icon-canvas-transparent{opacity:0;fill:#F6F6F6;}
	.icon-vs-out{fill:#F6F6F6;}
	.icon-vs-bg{fill:#424242;}
	.icon-vs-fg{fill:#F0EFF1;}
</style><path
     inkscape:connector-curvature="0"
     class="icon-canvas-transparent"
     d="M 28,16 16,16 16,4 28,4 28,16 Z"
     id="canvas"
     style="opacity:0;fill:#f6f6f6" /><path
     style="fill:#424242"
     d="M 22 4.75 C 21.796 4.75 21.593281 4.7646094 21.394531 4.7871094 L 20.800781 6.4648438 C 20.644781 6.5180938 20.494359 6.5783906 20.349609 6.6503906 L 18.744141 5.8867188 C 18.426141 6.1379688 18.138719 6.4268906 17.886719 6.7441406 L 18.648438 8.3476562 C 18.576438 8.4931562 18.517344 8.6435781 18.464844 8.7988281 L 16.787109 9.3945312 C 16.764609 9.5932813 16.75 9.79525 16.75 10 C 16.75 10.20475 16.764609 10.406719 16.787109 10.605469 L 17.435547 10.835938 L 19.035156 10.054688 L 19.583984 10.501953 C 19.695149 10.592502 19.795296 10.696922 19.902344 10.792969 C 19.808572 10.545318 19.75 10.280528 19.75 10 C 19.75 8.75725 20.75725 7.75 22 7.75 C 23.24275 7.75 24.25 8.75725 24.25 10 C 24.25 11.24275 23.24275 12.25 22 12.25 C 21.671229 12.25 21.361596 12.175529 21.080078 12.048828 L 21.486328 12.576172 L 20.904297 13.833984 L 21.394531 15.212891 C 21.593281 15.236141 21.796 15.25 22 15.25 C 22.20475 15.25 22.406719 15.236141 22.605469 15.212891 L 23.201172 13.537109 C 23.356422 13.483859 23.507594 13.424312 23.652344 13.351562 L 25.257812 14.115234 C 25.575813 13.863234 25.862031 13.575812 26.113281 13.257812 L 25.351562 11.652344 C 25.423563 11.506844 25.482656 11.358375 25.535156 11.203125 L 27.212891 10.605469 C 27.236141 10.406719 27.25 10.20475 27.25 10 C 27.25 9.79525 27.235391 9.5940313 27.212891 9.3945312 L 25.537109 8.796875 C 25.484609 8.641625 25.423562 8.4931563 25.351562 8.3476562 L 26.115234 6.7421875 C 25.863984 6.4249375 25.575813 6.1379687 25.257812 5.8867188 L 23.652344 6.6484375 C 23.506844 6.5764375 23.358375 6.5173438 23.203125 6.4648438 L 22.605469 4.7871094 C 22.405969 4.7646094 22.20475 4.75 22 4.75 z M 22 8.875 C 21.37825 8.875 20.875 9.379 20.875 10 C 20.875 10.621 21.37825 11.125 22 11.125 C 22.62175 11.125 23.125 10.621 23.125 10 C 23.125 9.379 22.62175 8.875 22 8.875 z "
     id="iconBg" /><path
     inkscape:connector-curvature="0"
     class="icon-canvas-transparent"
     d="M 23,27 5,27 5,8.5 23,8.5 23,27 Z"
     id="canvas-7"
     style="opacity:0;fill:#f6f6f6" /><path
     inkscape:connector-curvature="0"
     class="icon-vs-bg"
     d="m 19.30325,19.603469 c -0.07875,0.239343 -0.16875,0.470593 -0.27675,0.694906 l 1.144125,2.473219 c -0.376875,0.49025 -0.80775,0.933094 -1.28475,1.321593 l -2.4075,-1.177062 c -0.217125,0.112156 -0.44325,0.2035 -0.676125,0.285594 l -0.894375,2.584218 C 14.60975,25.821781 14.307125,25.84375 14,25.84375 c -0.306,0 -0.608625,-0.02197 -0.90675,-0.05781 l -0.894375,-2.584218 c -0.232875,-0.08209 -0.459,-0.173438 -0.67725,-0.285594 l -2.4075,1.175906 C 8.637125,23.703531 8.20625,23.260687 7.82825,22.770437 L 8.972375,20.297219 C 8.866625,20.074062 8.7755,19.842812 8.69675,19.603469 L 6.18125,18.683094 C 6.1475,18.376687 6.125,18.065656 6.125,17.75 c 0,-0.315656 0.0225,-0.626688 0.05625,-0.933094 l 2.5155,-0.919218 C 8.7755,15.658344 8.8655,15.427094 8.9735,15.202781 l -1.143,-2.473218 c 0.378,-0.489094 0.808875,-0.933094 1.285875,-1.320438 l 2.4075,1.175906 c 0.217125,-0.111 0.44325,-0.2035 0.67725,-0.285593 L 13.09325,9.7140625 C 13.391375,9.679375 13.694,9.65625 14,9.65625 c 0.307125,0 0.60975,0.023125 0.909,0.057813 l 0.894375,2.5853755 c 0.232875,0.08094 0.457875,0.173437 0.676125,0.284437 l 2.4075,-1.175906 c 0.477,0.387344 0.907875,0.831344 1.28475,1.320437 l -1.144125,2.473219 c 0.108,0.224313 0.198,0.455562 0.27675,0.694906 l 2.5155,0.919219 c 0.03375,0.307562 0.05513,0.618594 0.05513,0.93425 0,0.315656 -0.02137,0.626687 -0.05625,0.933094 l -2.5155,0.920375 z M 14,14.28125 c -1.864125,0 -3.375,1.552844 -3.375,3.46875 0,1.915906 1.510875,3.46875 3.375,3.46875 1.864125,0 3.375,-1.552844 3.375,-3.46875 0,-1.915906 -1.510875,-3.46875 -3.375,-3.46875 z m 0,1.734375 c -0.932625,0 -1.6875,0.777 -1.6875,1.734375 0,0.957375 0.754875,1.734375 1.6875,1.734375 0.932625,0 1.6875,-0.777 1.6875,-1.734375 0,-0.957375 -0.754875,-1.734375 -1.6875,-1.734375 z"
     id="iconBg-5"
     style="fill:#424242" /></svg>